<svg xmlns="http://www.w3.org/2000/svg" version="1.1" xmlns:xlink="http://www.w3.org/1999/xlink" xmlns:svgjs="http://svgjs.dev/svgjs" width="1500" height="492" viewBox="0 0 1500 492"><g transform="matrix(1,0,0,1,-0.9084522071641459,-0.6440834873798167)"><svg viewBox="0 0 396 130" data-background-color="#ffffff" preserveAspectRatio="xMidYMid meet" height="492" width="1500" xmlns="http://www.w3.org/2000/svg" xmlns:xlink="http://www.w3.org/1999/xlink"><g id="tight-bounds" transform="matrix(1,0,0,1,0.24008861730862918,0.1701846612995439)"><svg viewBox="0 0 395.52 129.6596306774009" height="129.6596306774009" width="395.52"><g><svg viewBox="0 0 395.52 129.6596306774009" height="129.6596306774009" width="395.52"><g><svg viewBox="0 0 395.52 129.6596306774009" height="129.6596306774009" width="395.52"><g id="textblocktransform"><svg viewBox="0 0 395.52 129.6596306774009" height="129.6596306774009" width="395.52" id="textblock"><g><svg viewBox="0 0 395.52 96.93549475505344" height="96.93549475505344" width="395.52"><path d="M394.594 20.791C392.735 10.729 387.435 7.932 387.435 7.932 371.165-2.432 350.86-0.198 332.619 1.291 300.414 1.351 268.339 3.565 236.208 4.752 168.767 4.933 100.749 1.955 33.643 9.3 27.339 11.554-6.54 9.743 1.121 22.079 3.129 27.21 10.456 32.905 10.232 37.614 11.236 38.439 12.631 36.548 13.226 37.735 15.309 40.935 18.711 39.425 21.501 41.317 17.614 46.368 20.403 50.574 23.062 54.981 18.377 56.128 12.371 55.585 9.675 59.388 9.396 62.145 7.89 61.622 6.235 61.501 5.026 61.421 2.59 61.722 2.999 62.588 4.394 65.546-1.594 67.257 2.162 70.154-0.422 73.294 3.948 76.01 3.353 79.411 3.278 80.095 3.687 80.679 4.338 80.84 7.22 81.705 3.018 83.396 3.464 85.227 33.029 97.744 65.104 89.091 95.394 94.846 103.259 90.821 97.346 96.275 100.489 95.43 102.943 94.444 104.728 98.529 107.499 96.215 107.927 95.551 107.276 93.981 108.8 94.283 109.6 94.444 110.307 94.403 110.418 93.478 110.586 92.089 109.117 92.955 108.726 92.23 112.947 88.568 111.906 97.281 115.866 96.919 115.68 95.852 114.528 94.323 116.889 94.524 119.232 92.995 119.306 91.727 121.389 95.168 121.463 95.913 121.835 96.436 122.43 96.798 128.938 93.055 135.409 98.126 142.233 96.436 146.417 94.585 150.433 97.442 154.672 96.738 156.16 96.174 157.666 95.168 159.098 96.859 176.632 97.221 195.319 95.711 211.943 96.919 256.364 94.665 303.836 97.845 350.674 94.866 361.719 93.719 373.192 92.089 383.958 90.781 383.958 90.781 392.679 87.199 392.679 71.1S394.538 57.014 394.817 44.195C395.096 31.376 396.398 30.853 394.538 20.791Z" opacity="1" fill="#6b7280" data-fill-palette-color="tertiary"></path><g transform="matrix(1,0,0,1,55.76832,26.068561146666667)"><svg width="283.98335999999995" viewBox="1.4 -35.35 227.23833333333 35.85" height="44.7983724617201" data-palette-color="#ffffff"><path d="M11.2 0.5L11.2 0.5Q8.45 0.5 6.23-0.88 4-2.25 2.7-4.55 1.4-6.85 1.4-9.7L1.4-9.7 1.45-25.3Q1.45-28.05 2.73-30.33 4-32.6 6.23-33.98 8.45-35.35 11.2-35.35L11.2-35.35Q13.95-35.35 16.15-34 18.35-32.65 19.65-30.38 20.95-28.1 20.95-25.3L20.95-25.3 20.95-23Q20.95-22.8 20.75-22.8L20.75-22.8 15.15-22.8Q14.95-22.8 14.95-23L14.95-23 14.95-25.3Q14.95-26.95 13.88-28.15 12.8-29.35 11.2-29.35L11.2-29.35Q9.4-29.35 8.45-28.13 7.5-26.9 7.5-25.3L7.5-25.3 7.5-9.7Q7.5-7.85 8.58-6.7 9.65-5.55 11.2-5.55L11.2-5.55Q12.8-5.55 13.88-6.83 14.95-8.1 14.95-9.7L14.95-9.7 14.95-12Q14.95-12.2 15.15-12.2L15.15-12.2 20.8-12.2Q21-12.2 21-12L21-12 21-9.7Q21-6.85 19.68-4.55 18.35-2.25 16.15-0.88 13.95 0.5 11.2 0.5ZM33.9 0.5L33.9 0.5Q31.2 0.5 28.97-0.88 26.75-2.25 25.4-4.53 24.05-6.8 24.05-9.55L24.05-9.55 24.1-25.4Q24.1-28.15 25.42-30.4 26.75-32.65 29-34 31.25-35.35 33.9-35.35L33.9-35.35Q36.6-35.35 38.8-34 41-32.65 42.32-30.4 43.65-28.15 43.65-25.4L43.65-25.4 43.7-9.55Q43.7-6.8 42.37-4.53 41.05-2.25 38.82-0.88 36.6 0.5 33.9 0.5ZM33.9-5.55L33.9-5.55Q35.4-5.55 36.52-6.78 37.65-8 37.65-9.55L37.65-9.55 37.6-25.4Q37.6-27.05 36.55-28.2 35.5-29.35 33.9-29.35L33.9-29.35Q32.35-29.35 31.25-28.23 30.15-27.1 30.15-25.4L30.15-25.4 30.15-9.55Q30.15-7.9 31.25-6.73 32.35-5.55 33.9-5.55ZM57 0.5L57 0.5Q54.34 0.5 52.09-0.88 49.84-2.25 48.52-4.55 47.2-6.85 47.2-9.6L47.2-9.6 47.3-34.6Q47.3-34.8 47.5-34.8L47.5-34.8 53.09-34.8Q53.3-34.8 53.3-34.6L53.3-34.6 53.3-9.6Q53.3-7.9 54.37-6.73 55.45-5.55 57-5.55L57-5.55Q58.59-5.55 59.67-6.73 60.75-7.9 60.75-9.6L60.75-9.6 60.75-34.6Q60.75-34.8 60.95-34.8L60.95-34.8 66.55-34.8Q66.75-34.8 66.75-34.6L66.75-34.6 66.84-9.6Q66.84-6.8 65.52-4.5 64.2-2.2 61.97-0.85 59.75 0.5 57 0.5ZM76.64 0L70.99 0Q70.79 0 70.79-0.25L70.79-0.25 70.89-34.6Q70.89-34.8 71.09-34.8L71.09-34.8 81.19-34.8Q83.89-34.8 86.17-33.48 88.44-32.15 89.79-29.93 91.14-27.7 91.14-24.9L91.14-24.9Q91.14-23.05 90.59-21.58 90.04-20.1 89.29-19.07 88.54-18.05 87.94-17.55L87.94-17.55Q90.64-14.55 90.64-10.5L90.64-10.5 90.69-0.25Q90.69 0 90.44 0L90.44 0 84.79 0Q84.59 0 84.59-0.15L84.59-0.15 84.59-10.5Q84.59-12.3 83.32-13.63 82.04-14.95 80.19-14.95L80.19-14.95 76.89-14.95 76.84-0.25Q76.84 0 76.64 0L76.64 0ZM76.89-28.8L76.89-20.95 81.19-20.95Q82.74-20.95 83.94-22.1 85.14-23.25 85.14-24.9L85.14-24.9Q85.14-26.5 83.97-27.65 82.79-28.8 81.19-28.8L81.19-28.8 76.89-28.8ZM103.24 0.5L103.24 0.5Q100.54 0.5 98.32-0.88 96.09-2.25 94.77-4.53 93.44-6.8 93.44-9.55L93.44-9.55 93.44-11.85Q93.44-12.1 93.69-12.1L93.69-12.1 99.29-12.1Q99.49-12.1 99.49-11.85L99.49-11.85 99.49-9.55Q99.49-7.9 100.59-6.73 101.69-5.55 103.24-5.55L103.24-5.55Q104.79-5.55 105.89-6.75 106.99-7.95 106.99-9.55L106.99-9.55Q106.99-11.4 104.59-12.75L104.59-12.75Q103.79-13.2 102.09-14.15 100.39-15.1 98.89-15.95L98.89-15.95Q96.14-17.55 94.82-19.98 93.49-22.4 93.49-25.45L93.49-25.45Q93.49-28.25 94.84-30.48 96.19-32.7 98.42-34 100.64-35.3 103.24-35.3L103.24-35.3Q105.89-35.3 108.12-33.98 110.34-32.65 111.67-30.43 112.99-28.2 112.99-25.45L112.99-25.45 112.99-21.35Q112.99-21.15 112.79-21.15L112.79-21.15 107.19-21.15Q106.99-21.15 106.99-21.35L106.99-21.35 106.94-25.45Q106.94-27.2 105.84-28.3 104.74-29.4 103.24-29.4L103.24-29.4Q101.69-29.4 100.59-28.23 99.49-27.05 99.49-25.45L99.49-25.45Q99.49-23.8 100.19-22.7 100.89-21.6 102.74-20.6L102.74-20.6Q102.99-20.45 103.72-20.08 104.44-19.7 105.29-19.23 106.14-18.75 106.82-18.4 107.49-18.05 107.64-17.95L107.64-17.95Q110.14-16.55 111.59-14.53 113.04-12.5 113.04-9.55L113.04-9.55Q113.04-6.7 111.72-4.42 110.39-2.15 108.17-0.83 105.94 0.5 103.24 0.5ZM132.89 0L116.74 0Q116.54 0 116.54-0.25L116.54-0.25 116.59-34.6Q116.59-34.8 116.79-34.8L116.79-34.8 132.84-34.8Q133.04-34.8 133.04-34.55L133.04-34.55 133.04-28.95Q133.04-28.75 132.84-28.75L132.84-28.75 122.59-28.75 122.59-20.95 132.84-20.95Q133.04-20.95 133.04-20.75L133.04-20.75 133.09-15.1Q133.09-14.9 132.89-14.9L132.89-14.9 122.59-14.9 122.59-6.15 132.89-6.15Q133.09-6.15 133.09-5.9L133.09-5.9 133.09-0.2Q133.09 0 132.89 0L132.89 0ZM142.99 0L137.99 0Q137.59 0 137.59-0.35L137.59-0.35 137.54-34.4Q137.54-34.8 137.94-34.8L137.94-34.8 142.44-34.8 150.89-15.1 150.64-34.4Q150.64-34.8 151.09-34.8L151.09-34.8 156.04-34.8Q156.34-34.8 156.34-34.4L156.34-34.4 156.39-0.3Q156.39 0 156.14 0L156.14 0 151.74 0 143.09-18.4 143.44-0.4Q143.44 0 142.99 0L142.99 0ZM169.98 0.5L169.98 0.5Q167.28 0.5 165.06-0.88 162.83-2.25 161.48-4.53 160.13-6.8 160.13-9.55L160.13-9.55 160.18-25.4Q160.18-28.15 161.51-30.4 162.83-32.65 165.08-34 167.33-35.35 169.98-35.35L169.98-35.35Q172.68-35.35 174.88-34 177.08-32.65 178.41-30.4 179.73-28.15 179.73-25.4L179.73-25.4 179.78-9.55Q179.78-6.8 178.46-4.53 177.13-2.25 174.91-0.88 172.68 0.5 169.98 0.5ZM169.98-5.55L169.98-5.55Q171.48-5.55 172.61-6.78 173.73-8 173.73-9.55L173.73-9.55 173.68-25.4Q173.68-27.05 172.63-28.2 171.58-29.35 169.98-29.35L169.98-29.35Q168.43-29.35 167.33-28.23 166.23-27.1 166.23-25.4L166.23-25.4 166.23-9.55Q166.23-7.9 167.33-6.73 168.43-5.55 169.98-5.55ZM189.43 0L183.78 0Q183.58 0 183.58-0.25L183.58-0.25 183.68-34.6Q183.68-34.8 183.88-34.8L183.88-34.8 189.98-34.8Q190.18-34.8 190.33-34.6L190.33-34.6 194.88-28 199.43-34.6Q199.58-34.8 199.78-34.8L199.78-34.8 205.93-34.8Q206.13-34.8 206.13-34.6L206.13-34.6 206.23-0.25Q206.23 0 206.03 0L206.03 0 200.38 0Q200.18 0 200.18-0.25L200.18-0.25 200.13-25.75 194.88-18.15 189.68-25.75 189.63-0.25Q189.63 0 189.43 0L189.43 0ZM208.73-0.25L208.73-0.25 214.93-34.6Q214.98-34.8 215.18-34.8L215.18-34.8 222.43-34.8Q222.63-34.8 222.68-34.6L222.68-34.6 228.63-0.25Q228.68 0 228.43 0L228.43 0 222.88 0Q222.68 0 222.63-0.25L222.63-0.25 222.08-3.9 215.28-3.9 214.73-0.25Q214.68 0 214.48 0L214.48 0 208.93 0Q208.73 0 208.73-0.25ZM218.53-23.3L216.28-9.25 221.08-9.25 219.03-23.3 218.73-25.15 218.53-23.3Z" opacity="1" transform="matrix(1,0,0,1,0,0)" fill="#ffffff" class="wordmark-text-0" data-fill-palette-color="quaternary" id="text-0"></path></svg></g></svg></g><g transform="matrix(1,0,0,1,92.78805942201977,107.51131533232648)"><svg viewBox="0 0 209.94388115596044 22.14831534507442" height="22.14831534507442" width="209.94388115596044"><g transform="matrix(1,0,0,1,0,0)"><svg width="209.94388115596044" viewBox="3 -37.5 473.9 50" height="22.14831534507442" data-palette-color="#6d747b"><path d="M13.3 0L3.25 0.05 3.3-0.65 5.9-1Q6.25-1.05 6.35-1.5L6.35-1.5 6.35-35.7Q6.35-36.25 6.05-36.25L6.05-36.25 3-36.35 3.05-37.05Q6.2-37.5 7.38-37.5 8.55-37.5 9.08-36.85 9.6-36.2 9.6-35.45L9.6-35.45 9.6-1 13.35-0.75Q13.35-0.7 13.3 0L13.3 0ZM20.85-11.5L20.85-11.5Q20.85-0.7 29.25-0.7L29.25-0.7Q31.45-0.7 33.95-1.18 36.45-1.65 37.15-2.05L37.15-2.05 37.5-1.55Q36.35-0.8 33.72-0.3 31.1 0.2 28.92 0.2 26.75 0.2 25.02-0.25 23.3-0.7 21.5-1.85 19.7-3 18.65-5.45 17.6-7.9 17.6-11.45L17.6-11.45Q17.6-18.05 21-21.55L21-21.55Q24.55-25.2 29.25-25.2 33.95-25.2 36.42-22.6 38.9-20 38.9-15.3L38.9-15.3Q38.9-14.3 38.75-13.15L38.75-13.15 20.9-13.15Q20.85-12.6 20.85-11.5ZM35.95-15.65L35.95-15.65Q35.95-19.4 34.3-21.78 32.65-24.15 29.8-24.15L29.8-24.15Q26.1-24.15 23.55-20.9L23.55-20.9Q21.5-18.35 21-14.1L21-14.1 35.9-14.1Q35.95-14.65 35.95-15.65ZM58.65-1.9L58.65-1.9 58.5-1.9Q54 0.2 49.75 0.2L49.75 0.2Q43.1 0.2 42.7-5.05L42.7-5.05Q42.65-5.4 42.65-5.7L42.65-5.7Q42.65-9.55 47.7-10.85L47.7-10.85Q50.7-11.5 58.5-12.4L58.5-12.4 58.5-16.8Q58.5-18.9 58-20.4 57.5-21.9 56.9-22.63 56.3-23.35 55.35-23.75L55.35-23.75Q54.15-24.25 52.67-24.25 51.2-24.25 49.3-23.5L49.3-23.5Q46.55-22.35 44.4-20.6L44.4-20.6 44.2-16.7 43.25-16.45 43.25-22.5 43.75-22.7Q47.65-24.4 49.7-24.75 51.75-25.1 52.7-25.13 53.65-25.15 54.52-25.1 55.4-25.05 56.8-24.65 58.2-24.25 59.22-23.53 60.25-22.8 61-21.35 61.75-19.9 61.75-17.9L61.75-17.9 61.75-2.6Q61.75-1.05 62.55-1.05L62.55-1.05 65.59-0.9 65.55-0.15Q62.75 0.25 60.55 0.25L60.55 0.25Q59.95 0.2 59.3-0.38 58.65-0.95 58.65-1.9ZM50.65-0.6L50.65-0.6Q54.35-0.6 58.5-3.2L58.5-3.2 58.5-11.45Q51-11.2 49.07-10.58 47.15-9.95 46.42-8.63 45.7-7.3 45.7-6L45.7-6Q45.7-5.75 45.7-5.5L45.7-5.5Q45.85-2.9 47.25-1.75 48.65-0.6 50.65-0.6ZM73.64-22.95L73.64-22.95 73.64-18.95Q77.59-24.75 81.39-24.85L81.39-24.85Q81.69-24.85 81.99-24.85L81.99-24.85 84.79-24.5 83.49-21.5Q82.54-22.45 81.04-22.45L81.04-22.45Q77.39-22.4 73.64-17.6L73.64-17.6 73.64-1 77.89-0.75Q77.89-0.7 77.84 0L77.84 0 67.34 0.05Q67.34-0.4 67.39-0.65L67.39-0.65 69.99-1Q70.39-1.05 70.39-1.7L70.39-1.7 70.39-23.4Q70.29-23.75 70.09-23.75L70.09-23.75 67.09-23.85 67.14-24.55Q69.84-25 71.24-25 72.64-25 73.14-24.35 73.64-23.7 73.64-22.95ZM97.09 0L87.04 0.05 87.09-0.65 89.69-1Q90.14-1.05 90.14-1.7L90.14-1.7 90.14-23.35Q90.04-23.75 89.84-23.75L89.84-23.75 86.79-23.85 86.84-24.55Q89.99-25 91.09-25L91.09-25Q93.09-25 93.34-23.25L93.34-23.25 93.39-23.25 93.39-22.2Q97.49-25 101.24-25.15L101.24-25.15Q104.89-25.15 106.79-23.7L106.79-23.7Q107.64-23.05 108.32-21.68 108.99-20.3 108.99-18.4L108.99-18.4 108.99-1 112.74-0.75Q112.74-0.7 112.69 0L112.69 0 102.69 0.05Q102.69-0.4 102.74-0.65L102.74-0.65 105.34-1Q105.74-1.05 105.74-1.7L105.74-1.7 105.74-17.15Q105.74-19.15 105.22-20.55 104.69-21.95 104.04-22.6 103.39-23.25 102.44-23.6L102.44-23.6Q101.34-24 100.14-24L100.14-24Q97.14-23.95 93.39-21.65L93.39-21.65 93.39-1 97.14-0.75Q97.14-0.7 97.09 0L97.09 0ZM122.34-22.95L122.34-22.95 122.34-1 126.09-0.75Q126.09-0.7 126.04 0L126.04 0 116.04 0.05Q116.04-0.4 116.09-0.65L116.09-0.65 118.69-1Q118.99-1 119.09-1.45L119.09-1.45 119.09-23.4Q118.99-23.75 118.79-23.75L118.79-23.75 115.79-23.85 115.84-24.55Q118.54-25 119.94-25 121.34-25 121.84-24.35 122.34-23.7 122.34-22.95ZM120.64-31.7Q119.64-31.7 119.09-32.33 118.54-32.95 118.54-33.98 118.54-35 119.11-35.63 119.69-36.25 120.69-36.25 121.69-36.25 122.31-35.63 122.94-35 122.94-33.93 122.94-32.85 122.29-32.27 121.64-31.7 120.64-31.7ZM139.39 0L129.34 0.05 129.39-0.65 131.99-1Q132.44-1.05 132.44-1.7L132.44-1.7 132.44-23.35Q132.34-23.75 132.14-23.75L132.14-23.75 129.09-23.85 129.14-24.55Q132.28-25 133.39-25L133.39-25Q135.39-25 135.64-23.25L135.64-23.25 135.69-23.25 135.69-22.2Q139.78-25 143.53-25.15L143.53-25.15Q147.19-25.15 149.09-23.7L149.09-23.7Q149.94-23.05 150.61-21.68 151.29-20.3 151.29-18.4L151.29-18.4 151.29-1 155.04-0.75Q155.04-0.7 154.99 0L154.99 0 144.99 0.05Q144.99-0.4 145.03-0.65L145.03-0.65 147.64-1Q148.04-1.05 148.04-1.7L148.04-1.7 148.04-17.15Q148.04-19.15 147.51-20.55 146.99-21.95 146.34-22.6 145.69-23.25 144.74-23.6L144.74-23.6Q143.64-24 142.44-24L142.44-24Q139.44-23.95 135.69-21.65L135.69-21.65 135.69-1 139.44-0.75Q139.44-0.7 139.39 0L139.39 0ZM156.43 5.15L156.43 5.15Q156.43 0.45 162.13-2.9L162.13-2.9Q159.68-4.25 159.68-6.33 159.68-8.4 161.68-9.55L161.68-9.55Q157.78-11.3 157.78-16.95L157.78-16.95Q157.78-20.8 160.68-23 163.58-25.2 168.08-25.2L168.08-25.2Q170.18-25.2 172.08-24.7L172.08-24.7 180.43-25.2 180.33-23.3 174.38-23.65Q177.63-21.55 177.63-17.3 177.63-13.05 174.88-10.8 172.13-8.55 167.78-8.55L167.78-8.55Q164.88-8.55 163.03-9.05L163.03-9.05Q162.18-8.1 162.18-6.85L162.18-6.85Q162.18-4.6 163.98-3.6L163.98-3.6Q165.93-2.45 170.88-1.6L170.88-1.6Q172.03-1.4 172.56-1.28 173.08-1.15 174.08-0.95 175.08-0.75 175.58-0.58 176.08-0.4 176.86-0.08 177.63 0.25 178.03 0.55 178.43 0.85 178.93 1.3 179.43 1.75 179.68 2.3L179.68 2.3Q180.23 3.6 180.23 5.33 180.23 7.05 179.18 8.6 178.13 10.15 176.28 10.95L176.28 10.95Q172.68 12.5 168.03 12.5L168.03 12.5Q161.88 12.5 159.16 10.33 156.43 8.15 156.43 5.15ZM162.93-2.5L162.93-2.5Q159.68 1.05 159.68 4.45 159.68 7.85 161.66 9.73 163.63 11.6 167.68 11.6 171.73 11.6 174.36 10.05 176.98 8.5 176.98 5.1L176.98 5.1Q176.98 2.4 175.31 1.15 173.63-0.1 170.58-0.7L170.58-0.7Q164.43-1.85 162.93-2.5ZM167.93-24.55Q164.83-24.55 162.93-22.63 161.03-20.7 161.03-16.85 161.03-13 162.48-11.1 163.93-9.2 167.21-9.2 170.48-9.2 172.36-11.38 174.23-13.55 174.23-17.25L174.23-17.25Q174.23-24.55 167.93-24.55L167.93-24.55ZM212.93-24.05L212.93-24.05Q209.93-24 206.43-21.85L206.43-21.85 206.43-1 210.18-0.75Q210.18-0.7 210.13 0L210.13 0 200.13 0.05Q200.13-0.4 200.18-0.65L200.18-0.65 202.78-1Q203.08-1 203.18-1.45L203.18-1.45 203.18-23.4Q203.08-23.75 202.88-23.75L202.88-23.75 199.88-23.85 199.93-24.55Q202.63-25 204.03-25 205.43-25 205.93-24.35 206.43-23.7 206.43-22.95L206.43-22.95 206.43-22.35Q210.58-24.95 214.03-25.15L214.03-25.15Q218.78-25.15 220.48-22.45L220.48-22.45Q224.83-24.95 228.68-25.15L228.68-25.15Q232.18-25.15 233.98-23.7L233.98-23.7Q234.83-23.05 235.45-21.68 236.08-20.3 236.08-18.4L236.08-18.4 236.08-1 239.83-0.75Q239.83-0.7 239.78 0L239.78 0 229.78 0.05Q229.78-0.4 229.83-0.65L229.83-0.65 232.43-1Q232.73-1 232.83-1.45L232.83-1.45 232.83-17.15Q232.83-19.15 232.33-20.58 231.83-22 231.23-22.65 230.63-23.3 229.73-23.65L229.73-23.65Q228.73-24.05 227.58-24.05L227.58-24.05Q224.48-24 220.83-21.7L220.83-21.7Q221.48-20.3 221.48-18.4L221.48-18.4 221.48-1 225.23-0.75Q225.23-0.7 225.18 0L225.18 0 215.13 0.05 215.18-0.65 217.78-1Q218.13-1.05 218.23-1.5L218.23-1.5 218.23-17.2Q218.23-19.65 217.58-21.23 216.93-22.8 215.83-23.3L215.83-23.3Q214.33-24.05 212.93-24.05ZM258.83-1.9L258.83-1.9 258.68-1.9Q254.18 0.2 249.93 0.2L249.93 0.2Q243.28 0.2 242.88-5.05L242.88-5.05Q242.83-5.4 242.83-5.7L242.83-5.7Q242.83-9.55 247.88-10.85L247.88-10.85Q250.88-11.5 258.68-12.4L258.68-12.4 258.68-16.8Q258.68-18.9 258.18-20.4 257.68-21.9 257.08-22.63 256.48-23.35 255.53-23.75L255.53-23.75Q254.33-24.25 252.85-24.25 251.38-24.25 249.48-23.5L249.48-23.5Q246.73-22.35 244.58-20.6L244.58-20.6 244.38-16.7 243.43-16.45 243.43-22.5 243.93-22.7Q247.83-24.4 249.88-24.75 251.93-25.1 252.88-25.13 253.83-25.15 254.7-25.1 255.58-25.05 256.98-24.65 258.38-24.25 259.4-23.53 260.43-22.8 261.18-21.35 261.93-19.9 261.93-17.9L261.93-17.9 261.93-2.6Q261.93-1.05 262.73-1.05L262.73-1.05 265.78-0.9 265.73-0.15Q262.93 0.25 260.73 0.25L260.73 0.25Q260.13 0.2 259.48-0.38 258.83-0.95 258.83-1.9ZM250.83-0.6L250.83-0.6Q254.53-0.6 258.68-3.2L258.68-3.2 258.68-11.45Q251.18-11.2 249.25-10.58 247.33-9.95 246.6-8.63 245.88-7.3 245.88-6L245.88-6Q245.88-5.75 245.88-5.5L245.88-5.5Q246.03-2.9 247.43-1.75 248.83-0.6 250.83-0.6ZM288.42-35.45L288.42-35.45 288.42-2.6Q288.42-1.05 289.22-1.05L289.22-1.05 292.22-0.9 292.17-0.15Q289.77 0.25 287.17 0.25L287.17 0.25Q286.62 0.2 286-0.3 285.37-0.8 285.27-1.6L285.27-1.6Q282.42 0.2 278.67 0.2L278.67 0.2Q275.02 0.2 271.92-1.85L271.92-1.85Q270.17-3 269.1-5.48 268.02-7.95 268.02-11.5L268.02-11.5Q268.02-18.05 271.37-21.5L271.37-21.5Q274.92-25.2 279.47-25.2L279.47-25.2Q282.27-25.2 285.17-23.75L285.17-23.75 285.17-35.7Q285.17-36.25 284.87-36.25L284.87-36.25 281.82-36.35 281.87-37.05Q285.02-37.5 286.2-37.5 287.37-37.5 287.9-36.85 288.42-36.2 288.42-35.45ZM279.32-0.7L279.32-0.7Q282.37-0.7 285.17-2.05L285.17-2.05 285.17-22.95Q282.97-24.3 280.82-24.3L280.82-24.3Q276.52-24.3 273.9-21 271.27-17.7 271.27-11.55L271.27-11.55Q271.27-0.7 279.32-0.7ZM300.22-11.5L300.22-11.5Q300.22-0.7 308.62-0.7L308.62-0.7Q310.82-0.7 313.32-1.18 315.82-1.65 316.52-2.05L316.52-2.05 316.87-1.55Q315.72-0.8 313.1-0.3 310.47 0.2 308.3 0.2 306.12 0.2 304.4-0.25 302.67-0.7 300.87-1.85 299.07-3 298.02-5.45 296.97-7.9 296.97-11.45L296.97-11.45Q296.97-18.05 300.37-21.55L300.37-21.55Q303.92-25.2 308.62-25.2 313.32-25.2 315.8-22.6 318.27-20 318.27-15.3L318.27-15.3Q318.27-14.3 318.12-13.15L318.12-13.15 300.27-13.15Q300.22-12.6 300.22-11.5ZM315.32-15.65L315.32-15.65Q315.32-19.4 313.67-21.78 312.02-24.15 309.17-24.15L309.17-24.15Q305.47-24.15 302.92-20.9L302.92-20.9Q300.87-18.35 300.37-14.1L300.37-14.1 315.27-14.1Q315.32-14.65 315.32-15.65ZM344.07-0.6L344.07-0.6Q344.37-0.6 344.67-0.65L344.67-0.65Q347.27-0.7 349.02-2.27 350.77-3.85 350.77-6.9L350.77-6.9Q350.77-9.9 346.07-11.25L346.07-11.25Q344.12-11.8 342.17-12.45 340.22-13.1 338.84-14.5 337.47-15.9 337.47-18.15L337.47-18.15Q337.47-21.35 339.92-23.28 342.37-25.2 346.12-25.2L346.12-25.2Q348.92-25.2 351.77-24.2L351.77-24.2 352.67-23.85 352.67-18.1 351.72-17.75 351.52-22Q348.62-24.3 346.67-24.3L346.67-24.3Q343.92-24.3 342.32-22.68 340.72-21.05 340.72-18.35L340.72-18.35Q340.72-16.8 342.09-15.85 343.47-14.9 345.42-14.35 347.37-13.8 349.32-13.13 351.27-12.45 352.64-10.93 354.02-9.4 354.02-6.95L354.02-6.95Q354.02-3.65 351.54-1.73 349.07 0.2 344.52 0.2 339.97 0.2 336.97-1.95L336.97-1.95 336.97-7.7 337.87-8.05 338.12-3.8Q338.82-2.5 340.64-1.55 342.47-0.6 344.07-0.6ZM364.31-22.95L364.31-22.95 364.31-1 368.06-0.75Q368.06-0.7 368.01 0L368.01 0 358.01 0.05Q358.01-0.4 358.06-0.65L358.06-0.65 360.66-1Q360.96-1 361.06-1.45L361.06-1.45 361.06-23.4Q360.96-23.75 360.76-23.75L360.76-23.75 357.76-23.85 357.81-24.55Q360.51-25 361.91-25 363.31-25 363.81-24.35 364.31-23.7 364.31-22.95ZM362.61-31.7Q361.61-31.7 361.06-32.33 360.51-32.95 360.51-33.98 360.51-35 361.09-35.63 361.66-36.25 362.66-36.25 363.66-36.25 364.29-35.63 364.91-35 364.91-33.93 364.91-32.85 364.26-32.27 363.61-31.7 362.61-31.7ZM384.11-24.05L384.11-24.05Q381.11-24 377.61-21.85L377.61-21.85 377.61-1 381.36-0.75Q381.36-0.7 381.31 0L381.31 0 371.31 0.05Q371.31-0.4 371.36-0.65L371.36-0.65 373.96-1Q374.26-1 374.36-1.45L374.36-1.45 374.36-23.4Q374.26-23.75 374.06-23.75L374.06-23.75 371.06-23.85 371.11-24.55Q373.81-25 375.21-25 376.61-25 377.11-24.35 377.61-23.7 377.61-22.95L377.61-22.95 377.61-22.35Q381.76-24.95 385.21-25.15L385.21-25.15Q389.96-25.15 391.66-22.45L391.66-22.45Q396.01-24.95 399.86-25.15L399.86-25.15Q403.36-25.15 405.16-23.7L405.16-23.7Q406.01-23.05 406.64-21.68 407.26-20.3 407.26-18.4L407.26-18.4 407.26-1 411.01-0.75Q411.01-0.7 410.96 0L410.96 0 400.96 0.05Q400.96-0.4 401.01-0.65L401.01-0.65 403.61-1Q403.91-1 404.01-1.45L404.01-1.45 404.01-17.15Q404.01-19.15 403.51-20.58 403.01-22 402.41-22.65 401.81-23.3 400.91-23.65L400.91-23.65Q399.91-24.05 398.76-24.05L398.76-24.05Q395.66-24 392.01-21.7L392.01-21.7Q392.66-20.3 392.66-18.4L392.66-18.4 392.66-1 396.41-0.75Q396.41-0.7 396.36 0L396.36 0 386.31 0.05 386.36-0.65 388.96-1Q389.31-1.05 389.41-1.5L389.41-1.5 389.41-17.2Q389.41-19.65 388.76-21.23 388.11-22.8 387.01-23.3L387.01-23.3Q385.51-24.05 384.11-24.05ZM424.81 12.45L414.26 12.5 414.31 11.8 416.91 11.45Q417.36 11.4 417.36 10.75L417.36 10.75 417.36-23.35Q417.26-23.75 417.06-23.75L417.06-23.75 414.01-23.85 414.06-24.55Q417.21-25 418.36-25 419.51-25 420.01-24.43 420.51-23.85 420.61-23.15L420.61-23.15Q423.76-25.45 427.31-25.45L427.31-25.45Q430.71-25.45 433.71-23.35L433.71-23.35Q435.31-22.2 436.28-19.75 437.26-17.3 437.26-13.8L437.26-13.8Q437.26-7.15 433.96-3.8L433.96-3.8Q430.21 0 424.26 0L424.26 0Q422.51 0 420.61-0.25L420.61-0.25 420.61 11.45 424.86 11.7Q424.81 12.4 424.81 12.45L424.81 12.45ZM420.61-22.15L420.61-22.15 420.61-1.3Q422.06-0.95 423.76-0.95L423.76-0.95Q428.66-0.95 431.33-4.28 434.01-7.6 434.01-13.55L434.01-13.55Q434.01-20.35 431.31-22.7L431.31-22.7Q429.21-24.55 426.61-24.55 424.01-24.55 420.61-22.15ZM451.31 0L441.26 0.05 441.31-0.65 443.91-1Q444.26-1.05 444.36-1.5L444.36-1.5 444.36-35.7Q444.36-36.25 444.06-36.25L444.06-36.25 441.01-36.35 441.06-37.05Q444.21-37.5 445.38-37.5 446.56-37.5 447.08-36.85 447.61-36.2 447.61-35.45L447.61-35.45 447.61-1 451.36-0.75Q451.36-0.7 451.31 0L451.31 0ZM458.85-11.5L458.85-11.5Q458.85-0.7 467.25-0.7L467.25-0.7Q469.45-0.7 471.95-1.18 474.45-1.65 475.15-2.05L475.15-2.05 475.5-1.55Q474.35-0.8 471.73-0.3 469.1 0.2 466.93 0.2 464.75 0.2 463.03-0.25 461.3-0.7 459.5-1.85 457.7-3 456.65-5.45 455.6-7.9 455.6-11.45L455.6-11.45Q455.6-18.05 459-21.55L459-21.55Q462.55-25.2 467.25-25.2 471.95-25.2 474.43-22.6 476.9-20 476.9-15.3L476.9-15.3Q476.9-14.3 476.75-13.15L476.75-13.15 458.9-13.15Q458.85-12.6 458.85-11.5ZM473.95-15.65L473.95-15.65Q473.95-19.4 472.3-21.78 470.65-24.15 467.8-24.15L467.8-24.15Q464.1-24.15 461.55-20.9L461.55-20.9Q459.5-18.35 459-14.1L459-14.1 473.9-14.1Q473.95-14.65 473.95-15.65Z" opacity="1" transform="matrix(1,0,0,1,0,0)" fill="#6d747b" class="slogan-text-1" data-fill-palette-color="secondary" id="text-1"></path></svg></g></svg></g></svg></g></svg></g><g></g></svg></g><defs></defs></svg><rect width="395.52" height="129.6596306774009" fill="none" stroke="none" visibility="hidden"></rect></g></svg></g></svg>